<?xml version="1.0" encoding="utf-8"?>
<svg version="1.1" xmlns:xlink="http://www.w3.org/1999/xlink" width="50px" height="42px" xmlns="http://www.w3.org/2000/svg">
  <defs>
    <pattern id="BGPattern" patternUnits="userSpaceOnUse" alignment="0 0" imageRepeat="None" />
    <mask fill="white" id="Clip4">
      <path d="M 41.73180998196031 23.05823863636364  C 42.13269192222891 23.217329545454543  42.3331328923632 23.505681818181813  42.3331328923632 23.923295454545453  L 42.3331328923632 33.40909090909091  C 42.3331328923632 35.77556818181818  41.4862697935458 37.79900568181819  39.792543595911006 39.47940340909091  C 38.09881739827621 41.15980113636363  36.05933052715976 42  33.674082982561636 42  L 8.659049909801563 42  C 6.273802365203449 42  4.234315494086991 41.15980113636363  2.540589296452195 39.47940340909091  C 0.8468630988173982 37.79900568181819  0 35.77556818181818  0 33.40909090909091  L 0 8.590909090909093  C 0 6.224431818181813  0.8468630988173982 4.200994318181817  2.540589296452195 2.5205965909090926  C 4.234315494086991 0.8401988636363595  6.273802365203449 0  8.659049909801563 0  L 33.674082982561636 0  C 34.936861094407696 0  36.10944076969332 0.2485795454545432  37.19182200841852 0.7457386363636342  C 37.49248346361996 0.884943181818179  37.672880336740825 1.1136363636363626  37.73301262778112 1.4318181818181805  C 37.79314491882141 1.7698863636363626  37.70294648226098 2.058238636363634  37.462417318099824 2.296875  L 35.98917618761275 3.7585227272727266  C 35.788735217478454 3.9573863636363598  35.558228101824014 4.056818181818181  35.29765484064943 4.056818181818181  C 35.23752254960914 4.056818181818181  35.147324113048704 4.036931818181817  35.02705953096813 3.9971590909090926  C 34.56604529965925 3.8778409090909074  34.115053116857084 3.8181818181818192  33.674082982561636 4  L 8.659049909801563 4  C 7.336139506915214 3.8181818181818192  6.203648025656445 4.28551136363636  5.261575466025255 5.220170454545453  C 4.319502906394067 6.154829545454543  3.848466626578473 7.278409090909093  4 8.590909090909093  L 4 33.40909090909091  C 3.848466626578473 34.72159090909091  4.319502906394067 35.845170454545446  5.261575466025255 36.77982954545455  C 6.203648025656445 37.71448863636363  7.336139506915214 38.18181818181818  8.659049909801563 38  L 33.674082982561636 38  C 34.996993385447986 38.18181818181818  36.129484866706754 37.71448863636363  37.07155742633794 36.77982954545455  C 38.01362998596914 35.845170454545446  38.484666265784725 34.72159090909091  38.484666265784725 33.40909090909091  L 38.484666265784725 25.83238636363636  C 38.484666265784725 25.573863636363637  38.57486470234516 25.35511363636364  38.75526157546603 25.17613636363636  L 40.679494888755265 23.267045454545453  C 40.87993585888956 23.068181818181817  41.110442974544 22.96875  41.371016235718585 22.96875  C 41.49128081779916 22.96875  41.61154539987974 22.998579545454547  41.73180998196031 23.05823863636364  Z M 50 7.636363636363634  C 50 8.292613636363635  49.75947083583885 8.859375  49.27841250751654 9.336647727272727  L 24.80457005411906 33.61789772727273  C 24.323511725796756 34.09517045454545  23.752254960914016 34.33380681818182  23.090799759470837 34.33380681818182  C 22.429344558027662 34.33380681818182  21.858087793144918 34.09517045454545  21.377029464822613 33.61789772727273  L 8.448586891160554 20.79119318181818  C 7.967528562838244 20.313920454545453  7.72699939867709 19.747159090909093  7.72699939867709 19.090909090909093  C 7.72699939867709 18.434659090909086  7.967528562838244 17.867897727272723  8.448586891160554 17.390625  L 11.755862898376428 14.109375  C 12.236921226698737 13.632102272727273  12.808177991581479 13.393465909090907  13.469633193024656 13.393465909090907  C 14.131088394467831 13.393465909090907  14.702345159350571 13.632102272727273  15.18340348767288 14.109375  L 23.090799759470837 21.954545454545453  L 42.54359591100421 2.6548295454545463  C 43.02465423932652 2.1775568181818192  43.595911004209256 1.9389204545454537  44.25736620565244 1.9389204545454537  C 44.91882140709561 1.9389204545454537  45.490078171978354 2.1775568181818192  45.971136500300666 2.6548295454545463  L 49.27841250751654 5.936079545454547  C 49.75947083583885 6.413352272727273  50 6.980113636363634  50 7.636363636363634  Z " fill-rule="evenodd" />
    </mask>
  </defs>
  <g transform="matrix(1 0 0 1 -553 -294 )">
    <path d="M 41.73180998196031 23.05823863636364  C 42.13269192222891 23.217329545454543  42.3331328923632 23.505681818181813  42.3331328923632 23.923295454545453  L 42.3331328923632 33.40909090909091  C 42.3331328923632 35.77556818181818  41.4862697935458 37.79900568181819  39.792543595911006 39.47940340909091  C 38.09881739827621 41.15980113636363  36.05933052715976 42  33.674082982561636 42  L 8.659049909801563 42  C 6.273802365203449 42  4.234315494086991 41.15980113636363  2.540589296452195 39.47940340909091  C 0.8468630988173982 37.79900568181819  0 35.77556818181818  0 33.40909090909091  L 0 8.590909090909093  C 0 6.224431818181813  0.8468630988173982 4.200994318181817  2.540589296452195 2.5205965909090926  C 4.234315494086991 0.8401988636363595  6.273802365203449 0  8.659049909801563 0  L 33.674082982561636 0  C 34.936861094407696 0  36.10944076969332 0.2485795454545432  37.19182200841852 0.7457386363636342  C 37.49248346361996 0.884943181818179  37.672880336740825 1.1136363636363626  37.73301262778112 1.4318181818181805  C 37.79314491882141 1.7698863636363626  37.70294648226098 2.058238636363634  37.462417318099824 2.296875  L 35.98917618761275 3.7585227272727266  C 35.788735217478454 3.9573863636363598  35.558228101824014 4.056818181818181  35.29765484064943 4.056818181818181  C 35.23752254960914 4.056818181818181  35.147324113048704 4.036931818181817  35.02705953096813 3.9971590909090926  C 34.56604529965925 3.8778409090909074  34.115053116857084 3.8181818181818192  33.674082982561636 4  L 8.659049909801563 4  C 7.336139506915214 3.8181818181818192  6.203648025656445 4.28551136363636  5.261575466025255 5.220170454545453  C 4.319502906394067 6.154829545454543  3.848466626578473 7.278409090909093  4 8.590909090909093  L 4 33.40909090909091  C 3.848466626578473 34.72159090909091  4.319502906394067 35.845170454545446  5.261575466025255 36.77982954545455  C 6.203648025656445 37.71448863636363  7.336139506915214 38.18181818181818  8.659049909801563 38  L 33.674082982561636 38  C 34.996993385447986 38.18181818181818  36.129484866706754 37.71448863636363  37.07155742633794 36.77982954545455  C 38.01362998596914 35.845170454545446  38.484666265784725 34.72159090909091  38.484666265784725 33.40909090909091  L 38.484666265784725 25.83238636363636  C 38.484666265784725 25.573863636363637  38.57486470234516 25.35511363636364  38.75526157546603 25.17613636363636  L 40.679494888755265 23.267045454545453  C 40.87993585888956 23.068181818181817  41.110442974544 22.96875  41.371016235718585 22.96875  C 41.49128081779916 22.96875  41.61154539987974 22.998579545454547  41.73180998196031 23.05823863636364  Z M 50 7.636363636363634  C 50 8.292613636363635  49.75947083583885 8.859375  49.27841250751654 9.336647727272727  L 24.80457005411906 33.61789772727273  C 24.323511725796756 34.09517045454545  23.752254960914016 34.33380681818182  23.090799759470837 34.33380681818182  C 22.429344558027662 34.33380681818182  21.858087793144918 34.09517045454545  21.377029464822613 33.61789772727273  L 8.448586891160554 20.79119318181818  C 7.967528562838244 20.313920454545453  7.72699939867709 19.747159090909093  7.72699939867709 19.090909090909093  C 7.72699939867709 18.434659090909086  7.967528562838244 17.867897727272723  8.448586891160554 17.390625  L 11.755862898376428 14.109375  C 12.236921226698737 13.632102272727273  12.808177991581479 13.393465909090907  13.469633193024656 13.393465909090907  C 14.131088394467831 13.393465909090907  14.702345159350571 13.632102272727273  15.18340348767288 14.109375  L 23.090799759470837 21.954545454545453  L 42.54359591100421 2.6548295454545463  C 43.02465423932652 2.1775568181818192  43.595911004209256 1.9389204545454537  44.25736620565244 1.9389204545454537  C 44.91882140709561 1.9389204545454537  45.490078171978354 2.1775568181818192  45.971136500300666 2.6548295454545463  L 49.27841250751654 5.936079545454547  C 49.75947083583885 6.413352272727273  50 6.980113636363634  50 7.636363636363634  Z " fill-rule="nonzero" fill="rgba(99, 161, 3, 1)" stroke="none" transform="matrix(1 0 0 1 553 294 )" class="fill" />
    <path d="M 41.73180998196031 23.05823863636364  C 42.13269192222891 23.217329545454543  42.3331328923632 23.505681818181813  42.3331328923632 23.923295454545453  L 42.3331328923632 33.40909090909091  C 42.3331328923632 35.77556818181818  41.4862697935458 37.79900568181819  39.792543595911006 39.47940340909091  C 38.09881739827621 41.15980113636363  36.05933052715976 42  33.674082982561636 42  L 8.659049909801563 42  C 6.273802365203449 42  4.234315494086991 41.15980113636363  2.540589296452195 39.47940340909091  C 0.8468630988173982 37.79900568181819  0 35.77556818181818  0 33.40909090909091  L 0 8.590909090909093  C 0 6.224431818181813  0.8468630988173982 4.200994318181817  2.540589296452195 2.5205965909090926  C 4.234315494086991 0.8401988636363595  6.273802365203449 0  8.659049909801563 0  L 33.674082982561636 0  C 34.936861094407696 0  36.10944076969332 0.2485795454545432  37.19182200841852 0.7457386363636342  C 37.49248346361996 0.884943181818179  37.672880336740825 1.1136363636363626  37.73301262778112 1.4318181818181805  C 37.79314491882141 1.7698863636363626  37.70294648226098 2.058238636363634  37.462417318099824 2.296875  L 35.98917618761275 3.7585227272727266  C 35.788735217478454 3.9573863636363598  35.558228101824014 4.056818181818181  35.29765484064943 4.056818181818181  C 35.23752254960914 4.056818181818181  35.147324113048704 4.036931818181817  35.02705953096813 3.9971590909090926  C 34.56604529965925 3.8778409090909074  34.115053116857084 3.8181818181818192  33.674082982561636 4  L 8.659049909801563 4  C 7.336139506915214 3.8181818181818192  6.203648025656445 4.28551136363636  5.261575466025255 5.220170454545453  C 4.319502906394067 6.154829545454543  3.848466626578473 7.278409090909093  4 8.590909090909093  L 4 33.40909090909091  C 3.848466626578473 34.72159090909091  4.319502906394067 35.845170454545446  5.261575466025255 36.77982954545455  C 6.203648025656445 37.71448863636363  7.336139506915214 38.18181818181818  8.659049909801563 38  L 33.674082982561636 38  C 34.996993385447986 38.18181818181818  36.129484866706754 37.71448863636363  37.07155742633794 36.77982954545455  C 38.01362998596914 35.845170454545446  38.484666265784725 34.72159090909091  38.484666265784725 33.40909090909091  L 38.484666265784725 25.83238636363636  C 38.484666265784725 25.573863636363637  38.57486470234516 25.35511363636364  38.75526157546603 25.17613636363636  L 40.679494888755265 23.267045454545453  C 40.87993585888956 23.068181818181817  41.110442974544 22.96875  41.371016235718585 22.96875  C 41.49128081779916 22.96875  41.61154539987974 22.998579545454547  41.73180998196031 23.05823863636364  Z " stroke-width="0" stroke-dasharray="0" stroke="rgba(255, 255, 255, 0)" fill="none" transform="matrix(1 0 0 1 553 294 )" class="stroke" mask="url(#Clip4)" />
    <path d="M 50 7.636363636363634  C 50 8.292613636363635  49.75947083583885 8.859375  49.27841250751654 9.336647727272727  L 24.80457005411906 33.61789772727273  C 24.323511725796756 34.09517045454545  23.752254960914016 34.33380681818182  23.090799759470837 34.33380681818182  C 22.429344558027662 34.33380681818182  21.858087793144918 34.09517045454545  21.377029464822613 33.61789772727273  L 8.448586891160554 20.79119318181818  C 7.967528562838244 20.313920454545453  7.72699939867709 19.747159090909093  7.72699939867709 19.090909090909093  C 7.72699939867709 18.434659090909086  7.967528562838244 17.867897727272723  8.448586891160554 17.390625  L 11.755862898376428 14.109375  C 12.236921226698737 13.632102272727273  12.808177991581479 13.393465909090907  13.469633193024656 13.393465909090907  C 14.131088394467831 13.393465909090907  14.702345159350571 13.632102272727273  15.18340348767288 14.109375  L 23.090799759470837 21.954545454545453  L 42.54359591100421 2.6548295454545463  C 43.02465423932652 2.1775568181818192  43.595911004209256 1.9389204545454537  44.25736620565244 1.9389204545454537  C 44.91882140709561 1.9389204545454537  45.490078171978354 2.1775568181818192  45.971136500300666 2.6548295454545463  L 49.27841250751654 5.936079545454547  C 49.75947083583885 6.413352272727273  50 6.980113636363634  50 7.636363636363634  Z " stroke-width="0" stroke-dasharray="0" stroke="rgba(255, 255, 255, 0)" fill="none" transform="matrix(1 0 0 1 553 294 )" class="stroke" mask="url(#Clip4)" />
  </g>
</svg>